PathFileType	4	(X/Y/Z)	C:\Users\Basilio\Documents\Thesis Gigler\squatting_fais\c3dfiles\058\SLS_front_pre5\markers_experimental.trc
DataRate	CameraRate	NumFrames	NumMarkers	Units	OrigDataRate	OrigDataStartFrame	OrigNumFrames
200.000000	200.000000	4	61	mm	200.000000	618	1236
Frame#	Time	FHD			LBHD			RBHD			C7			T10			CLAV			LSHO			LUUPA			LMUPA			LDUPA			LLEP			LMEP			LRAD			LUL			LRFIN			RSHO			RUPA1			RMUPA			RDUPA			RLEP			RMEP			RRAD			RUL			RUFIN			LASI			RASI			USACR			LSACR			RSACR			LTHI1			LTHI2			LTHI3			LTHI4			LLFC			LMFC			LTIB1			LTIB2			LTIB3			LTIB4			LLMAL			LMMAL			LHEE			LMT1			LMT2			LMT5			RTHI			RTHI2			RTHI3			RTHI4			RLFC			RMFC			RTIB1			RTIB2			RTIB3			RTIB4			RLMAL			RMMAL			RHEE			RMT1			RMT2			RMT5			
		X1	Y1	Z1	X2	Y2	Z2	X3	Y3	Z3	X4	Y4	Z4	X5	Y5	Z5	X6	Y6	Z6	X7	Y7	Z7	X8	Y8	Z8	X9	Y9	Z9	X10	Y10	Z10	X11	Y11	Z11	X12	Y12	Z12	X13	Y13	Z13	X14	Y14	Z14	X15	Y15	Z15	X16	Y16	Z16	X17	Y17	Z17	X18	Y18	Z18	X19	Y19	Z19	X20	Y20	Z20	X21	Y21	Z21	X22	Y22	Z22	X23	Y23	Z23	X24	Y24	Z24	X25	Y25	Z25	X26	Y26	Z26	X27	Y27	Z27	X28	Y28	Z28	X29	Y29	Z29	X30	Y30	Z30	X31	Y31	Z31	X32	Y32	Z32	X33	Y33	Z33	X34	Y34	Z34	X35	Y35	Z35	X36	Y36	Z36	X37	Y37	Z37	X38	Y38	Z38	X39	Y39	Z39	X40	Y40	Z40	X41	Y41	Z41	X42	Y42	Z42	X43	Y43	Z43	X44	Y44	Z44	X45	Y45	Z45	X46	Y46	Z46	X47	Y47	Z47	X48	Y48	Z48	X49	Y49	Z49	X50	Y50	Z50	X51	Y51	Z51	X52	Y52	Z52	X53	Y53	Z53	X54	Y54	Z54	X55	Y55	Z55	X56	Y56	Z56	X57	Y57	Z57	X58	Y58	Z58	X59	Y59	Z59	X60	Y60	Z60	X61	Y61	Z61	

619	3.09	-228.2021179199219	1541.123413085938	-612.6007690429689	-377.5099792480469	1474.008911132813	-688.4631347656251	-215.1564636230469	1550.5107421875	-754.1530761718751	-391.5147094726564	1360.170654296875	-708.9175415039064	-516.5968017578126	1085.970336914063	-708.2196655273439	-246.8030853271485	1278.185424804688	-688.8126831054689	-241.0350341796876	1343.573974609375	-834.247497558594	-96.22748565673831	1296.971435546875	-952.1260375976565	-71.74160003662111	1332.239990234375	-924.4030761718752	-26.41082000732423	1298.769165039063	-946.3828735351565	49.75372695922853	1304.793212890625	-932.4254150390627	51.88730621337892	1246.464233398438	-898.0673828125002	316.5840454101563	1324.0380859375	-836.1024169921877	317.8660888671876	1352.096313476563	-912.4615478515627	417.0611877441407	1354.154541015625	-834.520202636719	-264.1015319824219	1344.241333007813	-544.6402587890626	-119.9523162841797	1265.917602539063	-426.3638305664064	-96.94441223144534	1305.656982421875	-449.362518310547	-51.44871139526369	1276.6982421875	-424.1447143554689	17.78405189514161	1272.37353515625	-428.9666137695314	29.84648704528809	1215.96923828125	-480.3663635253907	290.2506408691407	1321.789672851563	-500.0919799804689	284.7219848632813	1330.015991210938	-417.3099975585939	376.7563781738282	1354.850952148438	-484.0252075195314	-385.2158813476564	877.2661132812502	-854.6363525390627	-378.7250976562501	859.4317626953127	-619.7022705078126	-567.6765747070314	948.7485351562502	-715.3093872070314	-579.6477050781251	919.6011352539065	-743.9682006835939	-576.8682250976564	915.0948486328127	-686.2302856445314	-277.9417419433594	686.6990966796876	-932.7484130859377	-198.9001922607422	656.0034179687501	-926.014587402344	-170.746810913086	686.4528808593751	-896.9866333007815	-179.6107025146485	598.9436645507814	-917.643981933594	-104.2648468017578	535.2545166015626	-906.1444091796877	-84.4274368286133	543.5184936523439	-778.8927001953127	33.17697143554688	485.472137451172	-870.492370605469	25.52155876159669	424.121063232422	-927.8729248046877	58.11403656005861	444.6567993164064	-904.5300903320315	118.6449279785157	391.0695800781251	-881.5025634765627	222.7452239990235	212.3134765625001	-899.4849243164065	231.8858642578126	240.7743530273438	-811.4600219726565	206.432113647461	144.7004852294922	-844.8154296875002	371.9589843750001	293.5026855468751	-837.803894042969	371.9957885742188	299.3367919921876	-884.2943115234377	351.2023620605469	247.6841888427735	-934.7780761718752	-364.4084472656251	666.2862548828126	-552.5053100585939	-298.0189208984376	652.6975097656251	-554.0167846679689	-273.8361816406251	674.1842651367189	-556.8018798828126	-265.4545593261719	578.1618652343751	-575.5920410156251	-158.6934204101563	460.9116210937501	-605.1766357421876	-128.2085571289063	474.596649169922	-741.3621826171876	-192.3744354248047	295.5280151367188	-721.4807739257814	-262.0386962890626	236.0433807373047	-658.6240844726564	-236.9277496337891	221.3368072509766	-696.0841674804689	-267.4313049316407	193.2638549804688	-734.5918579101564	-369.5152893066407	116.5448760986328	-697.7611694335939	-335.3167724609376	140.0707092285157	-783.0069580078127	-443.501678466797	107.2301254272461	-764.3248901367189	-235.9851074218751	60.46995925903322	-769.4192504882815	-230.6629028320313	60.09997177124025	-717.0704956054689	-282.6740112304688	29.59196662902833	-666.4725952148439	
620	3.095	-228.073226928711	1540.891845703125	-612.7127075195314	-377.2451782226563	1473.730834960938	-688.7898559570314	-214.9124145507813	1550.383178710938	-754.2330932617189	-391.3116760253907	1360.142822265625	-708.9913940429689	-516.5410766601564	1086.05224609375	-708.1451416015626	-246.5930480957032	1278.06884765625	-688.7988891601564	-240.9184722900391	1343.356811523438	-834.2836914062502	-96.05677032470706	1296.611694335938	-952.2352294921877	-71.55593109130861	1331.971801757813	-924.5222167968752	-26.15860748291016	1298.446533203125	-946.481628417969	50.10020828247072	1304.431518554688	-932.782409667969	51.85503005981447	1246.052001953125	-897.8750610351565	316.8828125000001	1323.476684570313	-836.1257934570315	317.9491882324219	1351.558227539063	-912.4916992187502	417.4023742675782	1353.740356445313	-834.5395507812502	-263.8526611328126	1344.251342773438	-544.7630615234376	-119.8567504882813	1265.91796875	-426.4966430664064	-96.80072021484378	1305.54833984375	-449.3918457031251	-51.28795623779298	1276.644409179688	-424.1831970214845	17.81524276733399	1272.120239257813	-428.9238586425782	29.89354324340821	1215.790893554688	-480.3921813964845	290.2472839355469	1321.40576171875	-499.9115295410157	284.6670837402344	1329.567138671875	-417.2628479003907	377.1997985839844	1354.437622070313	-483.6955871582032	-385.3397521972657	877.1687622070315	-854.549255371094	-378.6773986816407	859.3828125000002	-619.6538085937501	-567.6560058593751	948.8255004882815	-715.1197509765626	-579.6574707031251	919.7195434570315	-743.8011474609376	-576.8319091796876	915.1668090820315	-686.0931396484376	-278.2617492675782	686.6906127929689	-932.7813720703127	-198.9290008544922	656.0522460937501	-925.9631347656252	-171.1593322753907	686.5752563476564	-896.916442871094	-179.7060241699219	598.9630126953126	-917.635681152344	-104.4250259399414	535.2426147460939	-906.0479125976565	-84.65513610839845	543.8026123046876	-778.8326416015627	33.09094619750977	485.5165100097657	-870.431823730469	25.25471687316895	424.073944091797	-927.7374267578127	57.92999649047853	444.5696105957032	-904.4246826171877	118.5805587768555	391.1107177734376	-881.354675292969	222.5240478515626	212.3788757324219	-899.336364746094	231.7349700927735	240.8305358886719	-811.4042968750002	206.2229614257813	144.6684112548828	-844.7014160156252	371.8817138671876	293.4493713378907	-837.7361450195315	371.8035278320313	299.2648315429688	-884.2132568359377	350.9741210937501	247.5739746093751	-934.6855468750002	-364.4196472167969	666.2655639648439	-552.5200195312501	-298.0690917968751	652.7357177734376	-553.9493408203126	-273.8682250976563	674.1930541992189	-556.8129882812501	-265.5335693359376	578.0899658203126	-575.5864868164064	-158.8675994873047	460.9256896972657	-605.1489257812501	-128.1683654785157	474.6439514160157	-741.3530883789064	-192.3669586181641	295.5173034667969	-721.4838867187501	-262.0931091308594	235.9363403320313	-658.6906738281251	-236.8935089111329	221.2506561279297	-696.0801391601564	-267.4228210449219	193.2669372558594	-734.6700439453126	-369.5313415527344	116.5079421997071	-697.8400878906251	-335.3510437011719	139.97802734375	-783.1153564453127	-443.4507141113282	107.2330551147461	-764.3624877929689	-235.8828277587891	60.44220352172853	-769.4246215820315	-230.6627197265626	60.06558227539064	-717.1037597656251	-282.6897277832032	29.61486244201661	-666.4628295898439	
621	3.1	-227.9637603759766	1540.86572265625	-612.7883300781251	-377.1447753906251	1473.576782226563	-688.9685668945314	-214.6042022705079	1550.362670898438	-754.2866821289064	-391.0091552734376	1360.156860351563	-709.0408325195314	-516.4597167968751	1086.113891601563	-708.1273193359376	-246.3329620361329	1277.975463867188	-688.8684082031251	-240.5498504638672	1343.17138671875	-834.432556152344	-95.72573852539064	1296.295776367188	-952.3276977539065	-71.39182281494142	1331.733154296875	-924.558776855469	-25.88157081604005	1298.107299804688	-946.5620727539065	50.34664916992189	1304.126342773438	-932.8457641601565	52.12462997436525	1245.879028320313	-898.1127929687502	317.1826782226563	1322.97607421875	-836.2651977539065	318.2806396484376	1351.143310546875	-912.6159667968752	417.5784912109376	1353.172973632813	-834.5344848632815	-263.6136474609376	1344.215454101563	-544.8663940429689	-119.7964706420899	1265.945922851563	-426.5696105957032	-96.67812347412112	1305.449829101563	-449.3770141601564	-51.30022430419923	1276.563232421875	-424.1604003906251	17.88922691345215	1271.988891601563	-428.9273986816407	29.96662139892579	1215.6298828125	-480.3842163085939	290.1136169433594	1321.033081054688	-499.7808837890626	284.9880065917969	1329.31005859375	-417.239959716797	376.5962219238282	1353.673706054688	-484.3606872558595	-385.3526306152345	877.2308349609377	-854.5501098632815	-378.5924682617188	859.3613891601565	-619.6370849609376	-567.6283569335939	948.9383544921877	-714.9691162109376	-579.7025146484376	919.809509277344	-743.6218872070314	-576.7713012695314	915.1885375976565	-685.9479370117189	-278.3230285644532	686.6145019531251	-932.8099365234377	-199.0497283935547	656.0427856445314	-925.9201660156252	-171.3390808105469	686.5727539062501	-896.8178710937502	-179.7595520019532	598.9794311523439	-917.6355590820315	-104.556396484375	535.2611083984376	-905.9892578125002	-84.89776611328126	543.9880981445314	-778.7271728515627	32.94765853881837	485.5937805175782	-870.3892822265627	25.02034187316895	424.0889282226564	-927.5847167968752	57.83186721801759	444.5877990722657	-904.3743896484377	118.1539916992188	391.0551147460939	-881.2709960937502	222.3325653076172	212.3407135009766	-899.200134277344	231.5840148925782	240.9502410888672	-811.2857055664065	205.9219055175782	144.8008728027344	-844.524841308594	371.7928161621094	293.3457641601563	-837.6455078125002	371.6128540039063	299.1296691894532	-884.1247558593752	350.7352905273438	247.5002136230469	-934.5918579101565	-364.5166625976563	666.2763671875001	-552.5043334960939	-298.2736511230469	652.5897827148439	-553.8347778320314	-273.8232116699219	674.1970214843751	-556.7276000976564	-265.5220642089844	578.1828613281251	-575.5535888671876	-159.0140686035157	460.9010314941407	-605.1839599609376	-128.04736328125	474.7213745117189	-741.3667602539064	-192.3645477294922	295.4350585937501	-721.4987792968751	-262.0863037109376	235.8959045410157	-658.7368774414064	-236.9131774902344	221.2178344726563	-696.1984863281251	-267.4465026855469	193.247543334961	-734.7202758789064	-369.5220336914063	116.4952087402344	-697.9111328125001	-335.3121948242188	139.9127349853516	-783.2236328125002	-443.5068664550782	107.2453079223633	-764.3970336914064	-235.8490905761719	60.28911590576173	-769.5316162109377	-230.6539916992188	60.08091354370119	-717.1229248046876	-282.7004089355469	29.61701393127442	-666.4712524414064	
622	3.105	-227.8309936523438	1540.9599609375	-612.8731079101564	-376.9504699707032	1473.659423828125	-689.0937500000001	-214.3048706054688	1550.412353515625	-754.3974609375001	-390.767059326172	1360.276489257813	-709.1567382812501	-516.3682861328126	1086.209594726563	-708.0703735351564	-246.0912322998047	1277.919311523438	-688.9453735351564	-240.138412475586	1343.248168945313	-834.5142822265627	-95.50296020507814	1296.15576171875	-952.3684692382815	-71.15853118896486	1331.519409179688	-924.6370239257815	-25.71155357360841	1297.839111328125	-946.6727294921877	50.64568328857423	1303.8974609375	-933.0704345703127	52.6063804626465	1245.592163085938	-898.3669433593752	317.5173339843751	1322.552124023438	-836.318054199219	318.4041137695313	1350.727905273438	-912.6386718750002	417.8229370117189	1352.795532226563	-834.5893554687502	-263.6116333007813	1344.216796875	-544.9736938476564	-119.7300567626953	1265.876953125	-426.6194458007814	-96.591667175293	1305.354614257813	-449.424530029297	-51.23824691772462	1276.593017578125	-424.1303710937501	17.92384147644043	1271.930053710938	-428.9044799804689	30.01775169372559	1215.568725585938	-480.3431396484376	290.7752075195313	1321.016967773438	-500.010467529297	285.2113952636719	1328.893920898438	-417.2117919921876	376.6514587402344	1353.546264648438	-484.2863769531251	-385.1777648925782	877.2928466796877	-854.5588989257815	-378.5528564453126	859.3974609375002	-619.6069335937501	-567.6121215820314	948.971618652344	-714.7555541992189	-579.7002563476564	919.8981933593752	-743.4781494140626	-576.5164184570314	915.3326416015627	-685.8784790039064	-278.4541015625001	686.5639648437501	-932.821228027344	-199.2175445556641	655.9842529296876	-925.9117431640627	-171.4737243652344	686.2764282226564	-896.7668457031252	-179.96044921875	598.9764404296876	-917.5983886718752	-104.7003173828125	535.2305908203126	-905.9490966796877	-85.07358551025392	543.9985961914064	-778.5587158203127	32.76271057128907	485.6624145507814	-870.3162231445315	24.82850456237794	424.1809997558595	-927.5103759765627	57.70737457275392	444.6367187500001	-904.3193359375002	118.0657196044922	391.0650329589845	-881.1632080078127	222.0808410644532	212.3057250976563	-899.0652465820315	231.4971618652344	240.9595947265626	-811.1992187500002	205.6706542968751	144.7664947509766	-844.380554199219	371.6711425781251	293.2160949707032	-837.5635375976565	371.5113830566407	298.9949035644532	-884.0246582031252	350.5445556640626	247.4051666259766	-934.499694824219	-364.4623718261719	666.3643188476564	-552.4335937500001	-298.2944335937501	652.7472534179689	-553.7374877929689	-273.8327331542969	674.2026977539064	-556.7124023437501	-265.5507812500001	578.1873779296876	-575.5288696289064	-159.1056213378907	460.9450683593751	-605.2311401367189	-127.8351745605469	474.7962646484376	-741.3456420898439	-192.2915039062501	295.4319763183594	-721.5521850585939	-262.0863952636719	235.8793182373047	-658.7904663085939	-236.7878112792969	221.2606658935547	-696.2576293945314	-267.4543457031251	193.175765991211	-734.7829589843751	-369.4596557617188	116.4974365234375	-697.9779052734376	-335.2190246582032	139.916244506836	-783.3022460937502	-443.4454650878907	107.2376251220703	-764.4352416992189	-235.9341888427735	60.46263885498048	-769.4155883789065	-230.6161193847657	60.12189102172853	-717.0841064453126	-282.6867370605469	29.6793556213379	-666.4721069335939	
